<?xml version="1.0" encoding="UTF-8"?>
<!DOCTYPE svg PUBLIC "-//W3C//DTD SVG 1.1//EN" "http://www.w3.org/Graphics/SVG/1.1/DTD/svg11.dtd">
<svg xmlns="http://www.w3.org/2000/svg" version="1.1" width="72px" height="72px" style="shape-rendering:geometricPrecision; text-rendering:geometricPrecision; image-rendering:optimizeQuality; fill-rule:evenodd; clip-rule:evenodd" xmlns:xlink="http://www.w3.org/1999/xlink">
<g><path style="opacity:0.933" fill="#e11f39" d="M 28.5,10.5 C 26.3041,11.8541 24.8041,13.8541 24,16.5C 23.0997,20.1708 22.2663,23.8375 21.5,27.5C 20.5,27.5 19.5,27.5 18.5,27.5C 17.3342,34.691 18.1676,35.0243 21,28.5C 21.3845,30.1966 21.2178,31.8632 20.5,33.5C 17.3776,40.9584 16.3776,48.6251 17.5,56.5C 11.4093,56.7886 5.40926,56.4553 -0.5,55.5C -0.5,52.8333 -0.5,50.1667 -0.5,47.5C 2.37743,36.3108 5.21077,24.9775 8,13.5C 8.83333,12.6667 9.66667,11.8333 10.5,11C 16.4908,10.5005 22.4908,10.3338 28.5,10.5 Z"/></g>
<g><path style="opacity:0.961" fill="#157f88" d="M 48.5,10.5 C 56.253,10.201 63.9196,10.5343 71.5,11.5C 71.5,14.5 71.5,17.5 71.5,20.5C 68.4939,31.3297 65.6606,42.3297 63,53.5C 62.1667,54.3333 61.3333,55.1667 60.5,56C 52.8406,56.4997 45.1739,56.6664 37.5,56.5C 36.4183,55.4062 35.7517,54.0729 35.5,52.5C 36.6534,50.432 36.6534,48.432 35.5,46.5C 37.8568,46.6633 40.1902,46.4966 42.5,46C 41.8333,45.6667 41.1667,45.3333 40.5,45C 41.6721,44.5814 42.6721,43.9147 43.5,43C 41.8659,42.5065 40.1992,42.3398 38.5,42.5C 37.9553,46.1716 37.6219,45.8383 37.5,41.5C 41.8328,42.3147 44.1662,40.648 44.5,36.5C 42.1667,36.5 39.8333,36.5 37.5,36.5C 38.5511,35.7777 39.2178,34.7777 39.5,33.5C 44.3966,28.9256 43.3966,26.9256 36.5,27.5C 38.0419,26.8365 39.7086,26.1698 41.5,25.5C 42.6454,22.2519 43.4787,18.9185 44,15.5C 45.025,13.313 46.525,11.6464 48.5,10.5 Z"/></g>
<g><path style="opacity:1" fill="#fce8ea" d="M 9.5,22.5 C 10.675,22.281 11.675,22.6143 12.5,23.5C 10.9447,25.943 10.278,28.6097 10.5,31.5C 11.8221,31.67 12.9887,31.3366 14,30.5C 14.5257,27.7284 15.3591,25.0618 16.5,22.5C 17.4402,26.085 16.7735,29.4184 14.5,32.5C 12.5675,33.5202 10.5675,33.6869 8.5,33C 7.44273,29.425 7.77606,25.925 9.5,22.5 Z"/></g>
<g><path style="opacity:1" fill="#dae9eb" d="M 52.5,27.5 C 50.412,28.9395 48.0786,29.6061 45.5,29.5C 45.5,30.8333 45.5,32.1667 45.5,33.5C 44.325,33.719 43.325,33.3857 42.5,32.5C 44.0267,29.3404 44.6933,26.007 44.5,22.5C 46.8568,22.3367 49.1902,22.5034 51.5,23C 52.3802,24.3561 52.7135,25.8561 52.5,27.5 Z"/></g>
<g><path style="opacity:1" fill="#ebeaef" d="M 21.5,27.5 C 22.675,27.281 23.675,27.6143 24.5,28.5C 23.6906,30.0709 23.3573,31.7376 23.5,33.5C 22.5,33.5 21.5,33.5 20.5,33.5C 21.2178,31.8632 21.3845,30.1966 21,28.5C 18.1676,35.0243 17.3342,34.691 18.5,27.5C 19.5,27.5 20.5,27.5 21.5,27.5 Z"/></g>
<g><path style="opacity:1" fill="#e0e9ee" d="M 36.5,27.5 C 43.3966,26.9256 44.3966,28.9256 39.5,33.5C 39.6125,27.1693 38.6125,27.1693 36.5,33.5C 35.7492,32.624 35.2492,31.624 35,30.5C 34.0508,33.1997 32.2175,34.033 29.5,33C 28.1177,28.2945 27.4511,28.4612 27.5,33.5C 26.325,33.719 25.325,33.3857 24.5,32.5C 25.3482,30.5914 25.6816,28.5914 25.5,26.5C 27.1238,26.3601 28.2904,27.0267 29,28.5C 31.5918,27.0183 33.9251,27.3517 36,29.5C 36.4643,28.9056 36.631,28.2389 36.5,27.5 Z"/></g>
<g><path style="opacity:1" fill="#e7f2f3" d="M 59.5,27.5 C 61.6133,28.2563 63.6133,28.4229 65.5,28C 63.3295,31.6589 60.9962,35.1589 58.5,38.5C 58.1667,38.3333 57.8333,38.1667 57.5,38C 60.6289,34.982 61.2956,31.482 59.5,27.5 Z"/></g>
<g><path style="opacity:1" fill="#d1e4e6" d="M 52.5,27.5 C 54.5273,27.3379 56.5273,27.5045 58.5,28C 57.5939,29.6995 57.2606,31.5328 57.5,33.5C 55.5,33.5 53.5,33.5 51.5,33.5C 51.5172,31.4352 51.8505,29.4352 52.5,27.5 Z"/></g>
<g><path style="opacity:0.98" fill="#11467d" d="M 28.5,10.5 C 35.1667,10.5 41.8333,10.5 48.5,10.5C 46.525,11.6464 45.025,13.313 44,15.5C 43.4787,18.9185 42.6454,22.2519 41.5,25.5C 39.7086,26.1698 38.0419,26.8365 36.5,27.5C 36.631,28.2389 36.4643,28.9056 36,29.5C 33.9251,27.3517 31.5918,27.0183 29,28.5C 28.2904,27.0267 27.1238,26.3601 25.5,26.5C 25.6816,28.5914 25.3482,30.5914 24.5,32.5C 25.325,33.3857 26.325,33.719 27.5,33.5C 27.4511,28.4612 28.1177,28.2945 29.5,33C 32.2175,34.033 34.0508,33.1997 35,30.5C 35.2492,31.624 35.7492,32.624 36.5,33.5C 38.6125,27.1693 39.6125,27.1693 39.5,33.5C 39.2178,34.7777 38.5511,35.7777 37.5,36.5C 35.7909,36.6079 33.7909,36.7746 31.5,37C 30.7599,38.7849 30.0933,40.6183 29.5,42.5C 30.8333,43.5 30.8333,44.5 29.5,45.5C 30.723,46.6139 32.0563,46.7805 33.5,46C 32.0072,44.8438 32.1739,44.0104 34,43.5C 34.5,43.6667 35,43.8333 35.5,44C 34.2264,44.9772 34.2264,45.8106 35.5,46.5C 36.6534,48.432 36.6534,50.432 35.5,52.5C 35.7517,54.0729 36.4183,55.4062 37.5,56.5C 30.8333,56.5 24.1667,56.5 17.5,56.5C 16.3776,48.6251 17.3776,40.9584 20.5,33.5C 21.5,33.5 22.5,33.5 23.5,33.5C 23.3573,31.7376 23.6906,30.0709 24.5,28.5C 23.675,27.6143 22.675,27.281 21.5,27.5C 22.2663,23.8375 23.0997,20.1708 24,16.5C 24.8041,13.8541 26.3041,11.8541 28.5,10.5 Z"/></g>
<g><path style="opacity:1" fill="#e5f0f1" d="M 47.5,36.5 C 50.5719,36.1826 53.5719,36.5159 56.5,37.5C 55.1667,37.8333 53.8333,38.1667 52.5,38.5C 51.2956,40.9028 50.9622,43.2362 51.5,45.5C 53.4879,44.7112 53.8213,43.5445 52.5,42C 54.3008,41.6827 54.6341,41.016 53.5,40C 55.5,39.3333 57.5,39.3333 59.5,40C 56.4557,40.3589 56.1224,41.0255 58.5,42C 56.311,42.677 55.9776,43.8437 57.5,45.5C 53.8234,46.3977 49.4901,46.3977 44.5,45.5C 45.3507,42.4223 46.3507,39.4223 47.5,36.5 Z"/></g>
<g><path style="opacity:1" fill="#d6e4e9" d="M 37.5,36.5 C 39.8333,36.5 42.1667,36.5 44.5,36.5C 44.1662,40.648 41.8328,42.3147 37.5,41.5C 37.6219,45.8383 37.9553,46.1716 38.5,42.5C 40.1992,42.3398 41.8659,42.5065 43.5,43C 42.6721,43.9147 41.6721,44.5814 40.5,45C 41.1667,45.3333 41.8333,45.6667 42.5,46C 40.1902,46.4966 37.8568,46.6633 35.5,46.5C 34.2264,45.8106 34.2264,44.9772 35.5,44C 35,43.8333 34.5,43.6667 34,43.5C 32.1739,44.0104 32.0072,44.8438 33.5,46C 32.0563,46.7805 30.723,46.6139 29.5,45.5C 30.8333,44.5 30.8333,43.5 29.5,42.5C 30.0933,40.6183 30.7599,38.7849 31.5,37C 33.7909,36.7746 35.7909,36.6079 37.5,36.5 Z"/></g>
<g><path style="opacity:1" fill="#4b78a0" d="M 32.5,39.5 C 33.5676,38.5655 34.901,38.2322 36.5,38.5C 36.5,39.5 36.5,40.5 36.5,41.5C 35.1667,40.8333 33.8333,40.1667 32.5,39.5 Z"/></g>
</svg>
